<?xml version="1.0" standalone="no"?><!DOCTYPE svg PUBLIC "-//W3C//DTD SVG 1.1//EN" "http://www.w3.org/Graphics/SVG/1.1/DTD/svg11.dtd"><svg t="1497441749685" class="icon" style="" viewBox="0 0 1024 1024" version="1.1" xmlns="http://www.w3.org/2000/svg" p-id="2567" xmlns:xlink="http://www.w3.org/1999/xlink" width="200" height="200"><defs><style type="text/css"></style></defs><path d="M885.233645 143.551402c-137.17134 0-264.772586-51.040498-354.093458-133.981309-12.760125-9.570093-31.900312-9.570093-44.660436 0-82.94081 86.130841-213.732087 133.981308-350.903427 133.981309-15.950156 0-31.900312 12.760125-31.900312 31.900311v389.183801c0 121.221184 63.800623 239.252336 169.071652 309.433022l220.112149 143.551402c6.380062 3.190031 9.570093 6.380062 15.950156 6.380062s9.570093-3.190031 12.760124-3.190031l220.11215-146.741433c105.271028-70.180685 169.071651-188.211838 169.071651-309.433022V172.261682c6.380062-15.950156-6.380062-28.71028-25.520249-28.71028z m-25.520249 156.311526v261.582555c0 102.080997-54.23053 197.781931-143.551402 255.202492L512 950.629283l-204.161994-133.981308c-89.320872-57.420561-143.551402-153.121495-143.551402-255.202492V204.161994c133.981308-6.380062 255.202492-51.040498 347.713396-130.791277 89.320872 79.750779 213.732087 121.221184 347.713396 130.791277v95.700934z" p-id="2568" fill="#d2464b"></path><path d="M349.308411 440.224299c-9.570093-12.760125-31.900312-15.950156-44.660436-6.380062-12.760125 9.570093-15.950156 31.900312-6.380062 44.660436l114.841121 143.551402c3.190031 3.190031 12.760125 9.570093 19.140187 9.570093h3.190031c6.380062 0 12.760125 0 22.330218-6.380062l264.772586-207.352025c12.760125-9.570093 12.760125-31.900312 3.190031-44.660436-9.570093-9.570093-31.900312-12.760125-44.660436-3.190031l-242.442368 191.401869-89.320872-121.221184z" p-id="2569" fill="#d2464b"></path></svg>