<?xml version="1.0" standalone="no"?><!DOCTYPE svg PUBLIC "-//W3C//DTD SVG 1.1//EN" "http://www.w3.org/Graphics/SVG/1.1/DTD/svg11.dtd"><svg t="1497441734850" class="icon" style="" viewBox="0 0 1220 1024" version="1.1" xmlns="http://www.w3.org/2000/svg" p-id="2397" xmlns:xlink="http://www.w3.org/1999/xlink" width="238.28125" height="200"><defs><style type="text/css"></style></defs><path d="M1085.859211 0l-951.745715 0c-74.128807 0-134.113496 59.98469-134.113496 134.113496l0 755.773007c0 74.128807 59.98469 134.113496 134.113496 134.113496l951.745715 0c74.128807 0 134.113496-59.98469 134.113496-134.113496l0-755.773007C1219.972708 59.98469 1159.817607 0 1085.859211 0L1085.859211 0zM1161.86254 890.056915c0 41.921118-34.08221 76.003328-76.003328 76.003328l-951.745715 0c-41.921118 0-76.003328-34.08221-76.003328-76.003328l0-755.773007c0-41.921118 34.08221-76.003328 76.003328-76.003328l951.745715 0c41.921118 0 76.003328 34.08221 76.003328 76.003328L1161.86254 890.056915 1161.86254 890.056915z" p-id="2398" fill="#d2464b"></path><path d="M572.240306 583.487436C551.109336 565.083042 527.251789 550.427692 502.030954 539.521385 545.826593 507.313696 574.285239 455.338326 574.285239 396.546514c0-97.986354-79.411549-177.397903-177.397903-177.397903-97.986354 0-177.397903 79.411549-177.397903 177.397903 0 58.621401 28.458645 110.596772 72.424696 142.974871-24.880013 10.565485-48.226327 25.050424-69.016475 42.943585-47.885505 41.069063-79.752371 97.645532-89.977034 159.675154-2.556166 15.848228 8.17973 30.8444 24.027958 33.400566 15.848228 2.556166 30.8444-8.17973 33.400566-24.027958 16.700283-101.564986 103.609918-175.182559 206.708604-175.182559 102.757863 0 191.712431 76.514561 207.049426 177.909136 2.215344 14.484939 14.484939 24.709602 28.629056 24.709602 1.363288 0 2.896988-0.170411 4.430687-0.340822 15.848228-2.385755 26.754535-17.211516 24.36878-33.059744C651.992678 682.666667 620.296222 625.238143 572.240306 583.487436L572.240306 583.487436zM396.887336 277.42919c65.778665 0 119.287735 53.50907 119.287735 119.287735s-53.50907 119.287735-119.287735 119.287735c-65.778665 0-119.287735-53.50907-119.287735-119.287735S331.279081 277.42919 396.887336 277.42919L396.887336 277.42919z" p-id="2399" fill="#d2464b"></path><path d="M1058.252621 279.644533 673.805292 279.644533c-16.018639 0-29.14029 12.95124-29.14029 29.14029 0 16.018639 12.95124 29.14029 29.14029 29.14029L1058.252621 337.925112c16.018639 0 29.14029-12.95124 29.14029-29.14029C1087.392911 292.595773 1074.27126 279.644533 1058.252621 279.644533L1058.252621 279.644533z" p-id="2400" fill="#d2464b"></path><path d="M1058.252621 464.370111 673.805292 464.370111C657.786653 464.370111 644.665002 477.491762 644.665002 493.510401c0 16.018639 12.95124 29.14029 29.14029 29.14029L1058.252621 522.650691c16.018639 0 29.14029-12.95124 29.14029-29.14029C1087.392911 477.491762 1074.27126 464.370111 1058.252621 464.370111L1058.252621 464.370111z" p-id="2401" fill="#d2464b"></path><path d="M1058.252621 653.696788 734.812448 653.696788c-16.018639 0-29.14029 12.95124-29.14029 29.14029 0 16.018639 12.95124 29.14029 29.14029 29.14029L1058.252621 711.977367c16.018639 0 29.14029-12.95124 29.14029-29.14029C1087.392911 666.648028 1074.27126 653.696788 1058.252621 653.696788L1058.252621 653.696788z" p-id="2402" fill="#d2464b"></path></svg>