<?xml version="1.0" standalone="no"?><!DOCTYPE svg PUBLIC "-//W3C//DTD SVG 1.1//EN" "http://www.w3.org/Graphics/SVG/1.1/DTD/svg11.dtd"><svg t="1497441705340" class="icon" style="" viewBox="0 0 1381 1024" version="1.1" xmlns="http://www.w3.org/2000/svg" p-id="2236" xmlns:xlink="http://www.w3.org/1999/xlink" width="269.7265625" height="200"><defs><style type="text/css"></style></defs><path d="M1380.053908 919.977057 1328.90635 919.977057C1328.90635 699.966102 1155.094081 520.575655 937.282933 511.525261 907.987148 490.841013 876.610243 472.914113 843.555191 458.059213 847.242695 453.872129 850.805995 449.577402 854.26441 445.19159 874.195148 454.669801 896.483019 459.988528 920.021218 459.988528 1004.695806 459.988528 1073.336927 391.347407 1073.336927 306.672819 1073.336927 222.000992 1004.695806 153.357111 920.021218 153.357111 914.216712 153.357111 908.495008 153.710404 902.858868 154.339709 896.968798 137.492011 889.660032 121.323299 881.059536 105.963299 893.675989 103.528884 906.692658 102.209553 920.021218 102.209553 1032.942749 102.209553 1124.484485 193.751288 1124.484485 306.672819 1124.484485 376.387623 1089.569121 437.918706 1036.29904 474.824108 1234.066286 526.33048 1380.053908 706.101822 1380.053908 919.977057ZM639.831633 476.336647C859.826027 533.393596 1022.274933 733.264043 1022.274933 971.083213 1022.274933 988.333887 1021.408259 1005.377553 1019.738394 1022.189369L968.284464 1022.189369C970.142016 1005.405154 971.127375 988.361488 971.127375 971.083213 971.127375 717.06221 765.18193 511.138846 511.136086 511.138846 257.093003 511.138846 51.147558 717.06221 51.147558 971.083213 51.147558 988.361488 52.132916 1005.405154 53.990469 1022.189369L2.536539 1022.189369C0.866674 1005.377553 0 988.333887 0 971.083213 0 733.264043 162.448906 533.393596 382.443299 476.336647 306.576216 432.014836 255.569423 349.771903 255.569423 255.569423 255.569423 114.42303 369.989693 0 511.136086 0 652.28524 0 766.705509 114.42303 766.705509 255.569423 766.705509 349.771903 715.698717 432.014836 639.831633 476.336647ZM511.136086 51.147558C398.239396 51.147558 306.716981 142.669973 306.716981 255.569423 306.716981 368.466113 398.239396 459.988528 511.136086 459.988528 624.035536 459.988528 715.557951 368.466113 715.557951 255.569423 715.557951 142.669973 624.035536 51.147558 511.136086 51.147558Z" p-id="2237" fill="#d2464b"></path></svg>