<?xml version="1.0" standalone="no"?><!DOCTYPE svg PUBLIC "-//W3C//DTD SVG 1.1//EN" "http://www.w3.org/Graphics/SVG/1.1/DTD/svg11.dtd"><svg t="1497440663120" class="icon" style="" viewBox="0 0 1024 1024" version="1.1" xmlns="http://www.w3.org/2000/svg" p-id="1868" xmlns:xlink="http://www.w3.org/1999/xlink" width="200" height="200"><defs><style type="text/css"></style></defs><path d="M674.522514 304.810171c3.594875-3.591805 3.594875-9.417487 0-13.010315l-13.012362-13.014408c-3.592828-3.594875-9.420557-3.594875-13.014408 0l-132.992967 132.992967-130.263809-130.263809c-3.493567-3.494591-9.156544-3.494591-12.647041 0l-12.647041 12.647041c-3.493567 3.493567-3.493567 9.154497 0 12.646018l138.037866 138.040936 0 10.476609-134.147256 0c-4.940522 0-8.943696 4.003174-8.943696 8.94165l0 17.890462c0 4.938476 4.003174 8.94165 8.943696 8.94165l134.147256 0 0 89.429799-134.147256 0c-4.940522 0-8.943696 4.00522-8.943696 8.943696l0 17.886369c0 4.941546 4.003174 8.944719 8.943696 8.944719l134.147256 0 0 116.259864c0 4.941546 4.003174 8.944719 8.943696 8.944719l17.886369 0c4.938476 0 8.943696-4.003174 8.943696-8.944719l0-116.259864 134.147256 0c4.938476 0 8.943696-4.003174 8.943696-8.944719l0-17.886369c0-4.938476-4.004197-8.943696-8.943696-8.943696l-134.147256 0 0-89.429799 134.147256 0c4.938476 0 8.943696-4.003174 8.943696-8.94165l0-17.890462c0-4.938476-4.004197-8.94165-8.943696-8.94165l-134.147256 0 0-9.744945L674.522514 304.810171z" p-id="1869" fill="#d2464b"></path><path d="M873.597525 61.824067l-715.453738 0c-49.392944 0-89.433892 40.041972-89.433892 89.432869l0 715.453738c0 49.39192 40.040948 89.433892 89.433892 89.433892l715.453738 0c49.387827 0 89.431845-40.041972 89.431845-89.433892l0-715.453738C963.02937 101.866039 922.985352 61.824067 873.597525 61.824067zM927.256632 866.711697c0 29.588899-24.070208 53.661154-53.659107 53.661154l-715.453738 0c-29.588899 0-53.6632-24.072255-53.6632-53.661154l0-715.453738c0-29.588899 24.074302-53.66013 53.6632-53.66013l715.453738 0c29.588899 0 53.659107 24.072255 53.659107 53.66013L927.256632 866.711697z" p-id="1870" fill="#d2464b"></path></svg>