<?xml version="1.0" standalone="no"?><!DOCTYPE svg PUBLIC "-//W3C//DTD SVG 1.1//EN" "http://www.w3.org/Graphics/SVG/1.1/DTD/svg11.dtd"><svg t="1497493014947" class="icon" style="" viewBox="0 0 1024 1024" version="1.1" xmlns="http://www.w3.org/2000/svg" p-id="803" xmlns:xlink="http://www.w3.org/1999/xlink" width="200" height="200"><defs><style type="text/css"></style></defs><path d="M512.021489 61.675049c-246.079558 0-447.418123 202.64635-447.418123 450.325335s201.338564 450.325335 447.418123 450.325335 447.418123-202.64635 447.418123-450.325335S758.101047 61.675049 512.021489 61.675049L512.021489 61.675049zM512.021489 196.771934c76.061326 0 134.225027 58.542324 134.225027 135.097908s-58.164724 135.097908-134.225027 135.097908-134.225027-58.542324-134.225027-135.097908S435.960163 196.771934 512.021489 196.771934L512.021489 196.771934zM512.021489 836.23393c-111.854531 0-210.286354-58.542324-268.451078-144.104025 0-90.065272 178.967044-139.600455 268.451078-139.600455s268.451078 49.536206 268.451078 139.600455C722.307843 777.691606 623.87602 836.23393 512.021489 836.23393L512.021489 836.23393z" p-id="804" fill="#666666"></path></svg>